<svg xmlns="http://www.w3.org/2000/svg" viewBox="0 0 1600 1000" width="1600" height="1000">
<rect x="0.0" y="0.0" width="1600.0" height="1000.0" rx="0" fill="hsl(224 28% 93%)"/>
<ellipse cx="1080" cy="930" rx="520" ry="46" fill="hsl(224 30% 80%)" fill-opacity="0.30"/>
<g transform="translate(630.0,820.0) scale(1.00)"><rect x="-30.0" y="-45.0" width="60.0" height="20.0" rx="4" fill="hsl(224 30% 80%)"/><polygon points="-24.0,-25.0 24.0,-25.0 30.0,20.0 -30.0,20.0" fill="hsl(224 55% 38%)"/><circle cx="0.0" cy="0.0" r="14.0" fill="#ffffff"/></g>
<g transform="translate(1460.0,200.0) scale(0.90)"><rect x="-50.0" y="-20.0" width="100.0" height="60.0" rx="8" fill="hsl(224 30% 80%)"/><rect x="-42.0" y="-40.0" width="100.0" height="60.0" rx="8" fill="#ffffff"/><rect x="-42.0" y="-40.0" width="40.0" height="14.0" rx="4" fill="hsl(224 55% 38%)"/></g>
<rect x="560.0" y="130.0" width="940.0" height="740.0" rx="14" fill="#ffffff"/>
<rect x="560.0" y="130.0" width="940.0" height="64.0" rx="14" fill="hsl(224 55% 38%)"/>
<rect x="560.0" y="180.0" width="940.0" height="14.0" rx="0" fill="hsl(224 55% 38%)"/>
<circle cx="586.0" cy="162.0" r="6.0" fill="hsl(224 30% 80%)" fill-opacity="0.9"/>
<circle cx="608.0" cy="162.0" r="6.0" fill="hsl(224 30% 80%)" fill-opacity="0.9"/>
<circle cx="630.0" cy="162.0" r="6.0" fill="hsl(224 30% 80%)" fill-opacity="0.9"/>
<rect x="588.0" y="218.0" width="371.3" height="64.0" rx="10" fill="#ffffff"/>
<circle cx="610.0" cy="250.0" r="8.0" fill="hsl(224 55% 38%)"/>
<rect x="632.0" y="240.0" width="293.3" height="8.0" rx="4" fill="hsl(224 30% 80%)"/>
<rect x="632.0" y="254.0" width="261.3" height="6.0" rx="3" fill="hsl(224 30% 80%)"/>
<rect x="588.0" y="294.0" width="371.3" height="64.0" rx="10" fill="#ffffff"/>
<circle cx="610.0" cy="326.0" r="8.0" fill="hsl(224 55% 38%)"/>
<rect x="632.0" y="316.0" width="293.3" height="8.0" rx="4" fill="hsl(224 30% 80%)"/>
<rect x="632.0" y="330.0" width="261.3" height="6.0" rx="3" fill="hsl(224 30% 80%)"/>
<rect x="588.0" y="370.0" width="371.3" height="64.0" rx="10" fill="#ffffff"/>
<circle cx="610.0" cy="402.0" r="8.0" fill="hsl(224 55% 38%)"/>
<rect x="632.0" y="392.0" width="293.3" height="8.0" rx="4" fill="hsl(224 30% 80%)"/>
<rect x="632.0" y="406.0" width="261.3" height="6.0" rx="3" fill="hsl(224 30% 80%)"/>
<rect x="588.0" y="446.0" width="371.3" height="64.0" rx="10" fill="hsl(224 30% 80%)"/>
<circle cx="610.0" cy="478.0" r="8.0" fill="hsl(224 55% 38%)"/>
<rect x="632.0" y="468.0" width="293.3" height="8.0" rx="4" fill="hsl(224 55% 38%)"/>
<rect x="632.0" y="482.0" width="261.3" height="6.0" rx="3" fill="hsl(224 30% 80%)"/>
<rect x="983.3" y="218.0" width="488.7" height="628.0" rx="10" fill="hsl(224 28% 93%)"/>
<rect x="1003.3" y="238.0" width="448.7" height="14.0" rx="4" fill="hsl(224 55% 38%)"/>
<rect x="1003.3" y="272.0" width="428.7" height="8.0" rx="4" fill="hsl(224 30% 80%)"/>
<rect x="1003.3" y="298.0" width="398.7" height="8.0" rx="4" fill="hsl(224 30% 80%)"/>
<rect x="1003.3" y="324.0" width="368.7" height="8.0" rx="4" fill="hsl(224 30% 80%)"/>
<rect x="1003.3" y="800.0" width="90.0" height="26.0" rx="13" fill="hsl(224 55% 38%)"/>
<text x="1003.3" y="818.0" font-family="Helvetica, Arial, sans-serif" font-size="13" fill="#ffffff" text-anchor="start" font-weight="bold">Rationale</text>
<rect x="1394.0" y="100.0" width="88.0" height="30.0" rx="15" fill="#ffffff"/>
<circle cx="1410.0" cy="115.0" r="5.0" fill="hsl(44 22% 55%)"/>
<text x="1422.0" y="120.0" font-family="Helvetica, Arial, sans-serif" font-size="13" fill="#33312f" text-anchor="start" font-weight="normal">Synced</text>
</svg>