<svg xmlns="http://www.w3.org/2000/svg" viewBox="0 0 1600 1000" width="1600" height="1000" role="img" aria-label="Specialist insurance content subscription">
<rect width="1600" height="1000" fill="hsl(172 28% 93%)"/><rect x="820" y="170" width="40" height="40" rx="8" fill="hsl(172 55% 38%)"/><rect x="890" y="176" width="463.30071297008544" height="28" rx="14" fill="hsl(172 30% 80%)"/><rect x="820" y="250" width="40" height="40" rx="8" fill="hsl(172 55% 38%)"/><rect x="890" y="256" width="388.9623611513525" height="28" rx="14" fill="hsl(172 30% 80%)"/><rect x="820" y="330" width="40" height="40" rx="8" fill="hsl(172 55% 38%)"/><rect x="890" y="336" width="223.90128474216908" height="28" rx="14" fill="hsl(172 30% 80%)"/><rect x="820" y="410" width="40" height="40" rx="8" fill="hsl(172 55% 38%)"/><rect x="890" y="416" width="295.6912886723876" height="28" rx="14" fill="hsl(172 30% 80%)"/><rect x="820" y="490" width="40" height="40" rx="8" fill="hsl(172 55% 38%)"/><rect x="890" y="496" width="231.98323565069586" height="28" rx="14" fill="hsl(172 30% 80%)"/><rect x="820" y="570" width="40" height="40" rx="8" fill="hsl(172 55% 38%)"/><rect x="890" y="576" width="525.0273042079061" height="28" rx="14" fill="hsl(172 30% 80%)"/><rect x="820" y="650" width="40" height="40" rx="8" fill="hsl(172 55% 38%)"/><rect x="890" y="656" width="303.24249462690204" height="28" rx="14" fill="hsl(172 30% 80%)"/>
<text x="120" y="210" font-family="ui-monospace,Menlo,monospace" font-size="34" letter-spacing="4" fill="hsl(172 55% 38%)">AI-10-15 · INSURANCE</text>
<text x="116" y="340" font-family="Georgia,serif" font-size="96" fill="#33312f">Specialist</text><text x="116" y="444" font-family="Georgia,serif" font-size="96" fill="#33312f">insurance</text><text x="116" y="548" font-family="Georgia,serif" font-size="96" fill="#33312f">content</text><text x="116" y="652" font-family="Georgia,serif" font-size="96" fill="#33312f">subscription</text>
<text x="120" y="880" font-family="ui-monospace,Menlo,monospace" font-size="28" letter-spacing="2" fill="#6B655D">Source-based content workspace with editorial delivery</text>
</svg>