<svg xmlns="http://www.w3.org/2000/svg" viewBox="0 0 1600 1000" width="1600" height="1000">
<rect x="0.0" y="0.0" width="1600.0" height="1000.0" rx="0" fill="hsl(241 28% 93%)"/>
<ellipse cx="1080" cy="930" rx="520" ry="46" fill="hsl(241 30% 80%)" fill-opacity="0.30"/>
<g transform="translate(630.0,820.0) scale(1.05)"><rect x="-50.0" y="-35.0" width="90.0" height="55.0" rx="14" fill="hsl(241 30% 80%)"/><polygon points="-20.0,20.0 -8.0,34.0 10.0,20.0" fill="hsl(241 30% 80%)"/><path d="M -30 -10 L -10 10 L 22 -22" fill="none" stroke="hsl(241 55% 38%)" stroke-width="6" stroke-linecap="round" stroke-linejoin="round"/></g>
<rect x="560.0" y="130.0" width="940.0" height="740.0" rx="14" fill="#ffffff"/>
<rect x="560.0" y="130.0" width="940.0" height="64.0" rx="14" fill="hsl(241 55% 38%)"/>
<rect x="560.0" y="180.0" width="940.0" height="14.0" rx="0" fill="hsl(241 55% 38%)"/>
<circle cx="586.0" cy="162.0" r="6.0" fill="hsl(241 30% 80%)" fill-opacity="0.9"/>
<circle cx="608.0" cy="162.0" r="6.0" fill="hsl(241 30% 80%)" fill-opacity="0.9"/>
<circle cx="630.0" cy="162.0" r="6.0" fill="hsl(241 30% 80%)" fill-opacity="0.9"/>
<rect x="588.0" y="218.0" width="530.4" height="628.0" rx="10" fill="#33312f" fill-opacity="0.92"/>
<rect x="606.0" y="234.0" width="277.0" height="7.0" rx="3" fill="hsl(241 30% 80%)" fill-opacity="0.85"/>
<rect x="606.0" y="319.1" width="159.1" height="7.0" rx="3" fill="hsl(241 30% 80%)" fill-opacity="0.85"/>
<rect x="606.0" y="404.3" width="306.5" height="7.0" rx="3" fill="hsl(241 30% 80%)" fill-opacity="0.85"/>
<rect x="606.0" y="489.4" width="188.6" height="7.0" rx="3" fill="hsl(241 30% 80%)" fill-opacity="0.85"/>
<rect x="606.0" y="574.6" width="335.9" height="7.0" rx="3" fill="hsl(241 30% 80%)" fill-opacity="0.85"/>
<rect x="606.0" y="659.7" width="218.1" height="7.0" rx="3" fill="hsl(241 30% 80%)" fill-opacity="0.85"/>
<rect x="606.0" y="744.9" width="365.4" height="7.0" rx="3" fill="hsl(241 30% 80%)" fill-opacity="0.85"/>
<rect x="1138.4" y="218.0" width="333.6" height="628.0" rx="10" fill="#ffffff"/>
<circle cx="1158.4" cy="244.0" r="7.0" fill="hsl(241 55% 38%)"/>
<rect x="1176.4" y="238.0" width="273.6" height="12.0" rx="4" fill="hsl(241 28% 93%)"/>
<circle cx="1158.4" cy="442.7" r="7.0" fill="hsl(61 22% 55%)"/>
<rect x="1176.4" y="436.7" width="273.6" height="12.0" rx="4" fill="hsl(241 28% 93%)"/>
<circle cx="1158.4" cy="641.3" r="7.0" fill="hsl(241 55% 38%)"/>
<rect x="1176.4" y="635.3" width="273.6" height="12.0" rx="4" fill="hsl(241 28% 93%)"/>
<text x="606.0" y="870.0" font-family="Helvetica, Arial, sans-serif" font-size="12" fill="#33312f" text-anchor="start" font-weight="bold">Rules</text>
<rect x="1367.0" y="100.0" width="115.0" height="30.0" rx="15" fill="#ffffff"/>
<circle cx="1383.0" cy="115.0" r="5.0" fill="hsl(61 22% 55%)"/>
<text x="1395.0" y="120.0" font-family="Helvetica, Arial, sans-serif" font-size="13" fill="#33312f" text-anchor="start" font-weight="normal">In review</text>
</svg>