<svg xmlns="http://www.w3.org/2000/svg" viewBox="0 0 1600 1000" width="1600" height="1000"><rect x="0.0" y="0.0" width="1600.0" height="1000.0" fill="hsl(121, 28%, 93%)"/><g opacity="0.5"><circle cx="180.0" cy="570.0" r="210.0" fill="hsl(121, 30%, 80%)"/><g opacity="0.5"><circle cx="220.0" cy="830.0" r="90.0" fill="#ffffff"/></g></g><rect x="640.0" y="760.0" width="960.0" height="240.0" fill="hsl(121, 30%, 80%)"/><g opacity="0.35"><rect x="640.0" y="760.0" width="960.0" height="240.0" fill="#ffffff"/></g><g transform="rotate(1 1250.0 470.0)"><rect x="1197.8" y="670.0" width="104.4" height="22.0" fill="#33312f"/><rect x="1122.4" y="692.0" width="255.2" height="10.0" fill="#33312f"/><rect x="946.0" y="256.0" width="608.0" height="428.0" rx="10" ry="10" fill="#33312f"/><rect x="960.0" y="270.0" width="580.0" height="400.0" rx="10" ry="10" fill="#ffffff"/><rect x="960.0" y="270.0" width="162.4" height="400.0" fill="hsl(121, 28%, 93%)"/><line x1="978.0" y1="310.0" x2="1104.4" y2="310.0" stroke="hsl(121, 30%, 80%)" stroke-width="3" stroke-linecap="round"/><line x1="978.0" y1="344.0" x2="1104.4" y2="344.0" stroke="hsl(121, 30%, 80%)" stroke-width="3" stroke-linecap="round"/><line x1="978.0" y1="378.0" x2="1104.4" y2="378.0" stroke="hsl(121, 30%, 80%)" stroke-width="3" stroke-linecap="round"/><line x1="978.0" y1="412.0" x2="1104.4" y2="412.0" stroke="hsl(121, 30%, 80%)" stroke-width="3" stroke-linecap="round"/><text x="978.0" y="296.0" font-family="Helvetica, Arial, sans-serif" font-size="16" font-weight="600" fill="hsl(121, 55%, 38%)" text-anchor="start">Content library</text><text x="1146.4" y="300.0" font-family="Helvetica, Arial, sans-serif" font-size="20" font-weight="600" fill="#33312f" text-anchor="start">Format editor</text><line x1="1146.4" y1="326.0" x2="1520.0" y2="326.0" stroke="hsl(121, 30%, 80%)" stroke-width="4" stroke-linecap="round"/><line x1="1146.4" y1="352.0" x2="1464.0" y2="352.0" stroke="hsl(121, 30%, 80%)" stroke-width="4" stroke-linecap="round"/><line x1="1146.4" y1="378.0" x2="1490.1" y2="378.0" stroke="hsl(121, 30%, 80%)" stroke-width="4" stroke-linecap="round"/><line x1="1146.4" y1="404.0" x2="1370.6" y2="404.0" stroke="hsl(121, 30%, 80%)" stroke-width="4" stroke-linecap="round"/><line x1="1146.4" y1="430.0" x2="1445.3" y2="430.0" stroke="hsl(121, 30%, 80%)" stroke-width="4" stroke-linecap="round"/><line x1="1146.4" y1="456.0" x2="1407.9" y2="456.0" stroke="hsl(121, 30%, 80%)" stroke-width="4" stroke-linecap="round"/><rect x="1146.4" y="624.0" width="120.0" height="30.0" rx="8" ry="8" fill="hsl(121, 55%, 38%)"/></g><g transform="translate(856.5,710.0) rotate(10) scale(0.85)"><path d="M -30,-30 L 0,-24 L 0,30 L -30,24 Z" fill="#ffffff" stroke="hsl(121, 55%, 38%)" stroke-width="3" stroke-linecap="round" stroke-linejoin="round"/><path d="M 30,-30 L 0,-24 L 0,30 L 30,24 Z" fill="hsl(121, 30%, 80%)" stroke="hsl(121, 55%, 38%)" stroke-width="3" stroke-linecap="round" stroke-linejoin="round"/><line x1="-20.0" y1="-14.0" x2="-6.0" y2="-11.0" stroke="hsl(121, 55%, 38%)" stroke-width="2" stroke-linecap="round"/><line x1="-20.0" y1="-2.0" x2="-6.0" y2="-0.5" stroke="hsl(121, 55%, 38%)" stroke-width="2" stroke-linecap="round"/></g><g transform="translate(1319.6,650.0) rotate(6) scale(0.85)"><path d="M -24,-30 L -24,0 Q -24,20 -4,20 Q 16,20 16,0 L 16,-10" fill="none" stroke="hsl(121, 55%, 38%)" stroke-width="5" stroke-linecap="round" stroke-linejoin="round"/><circle cx="-24.0" cy="-34.0" r="7.0" fill="hsl(121, 55%, 38%)"/><circle cx="16.0" cy="-14.0" r="7.0" fill="hsl(121, 55%, 38%)"/><circle cx="-4.0" cy="30.0" r="12.0" fill="#ffffff" stroke="hsl(121, 55%, 38%)" stroke-width="4"/></g></svg>