<svg xmlns="http://www.w3.org/2000/svg" viewBox="0 0 1600 1000" width="1600" height="1000"><rect x="0.0" y="0.0" width="1600.0" height="1000.0" fill="hsl(121, 28%, 93%)"/><g opacity="0.5"><circle cx="300.0" cy="390.0" r="210.0" fill="hsl(121, 30%, 80%)"/><g opacity="0.5"><circle cx="340.0" cy="650.0" r="90.0" fill="#ffffff"/></g></g><rect x="640.0" y="760.0" width="960.0" height="240.0" fill="hsl(121, 30%, 80%)"/><g opacity="0.35"><rect x="640.0" y="760.0" width="960.0" height="240.0" fill="#ffffff"/></g><g transform="rotate(-3 1270.0 380.0)"><rect x="1221.4" y="570.0" width="97.2" height="22.0" fill="#33312f"/><rect x="1151.2" y="592.0" width="237.6" height="10.0" fill="#33312f"/><rect x="986.0" y="176.0" width="568.0" height="408.0" rx="10" ry="10" fill="#33312f"/><rect x="1000.0" y="190.0" width="540.0" height="380.0" rx="10" ry="10" fill="#ffffff"/><rect x="1000.0" y="190.0" width="140.4" height="380.0" fill="hsl(121, 28%, 93%)"/><circle cx="1020.0" cy="220.0" r="4.0" fill="hsl(121, 55%, 38%)"/><line x1="1032.0" y1="220.0" x2="1126.4" y2="220.0" stroke="hsl(121, 30%, 80%)" stroke-width="3" stroke-linecap="round"/><circle cx="1020.0" cy="250.0" r="4.0" fill="hsl(121, 55%, 38%)"/><line x1="1032.0" y1="250.0" x2="1126.4" y2="250.0" stroke="hsl(121, 30%, 80%)" stroke-width="3" stroke-linecap="round"/><circle cx="1020.0" cy="280.0" r="4.0" fill="hsl(121, 55%, 38%)"/><line x1="1032.0" y1="280.0" x2="1126.4" y2="280.0" stroke="hsl(121, 30%, 80%)" stroke-width="3" stroke-linecap="round"/><circle cx="1020.0" cy="310.0" r="4.0" fill="hsl(121, 55%, 38%)"/><line x1="1032.0" y1="310.0" x2="1126.4" y2="310.0" stroke="hsl(121, 30%, 80%)" stroke-width="3" stroke-linecap="round"/><circle cx="1020.0" cy="340.0" r="4.0" fill="hsl(121, 55%, 38%)"/><line x1="1032.0" y1="340.0" x2="1126.4" y2="340.0" stroke="hsl(121, 30%, 80%)" stroke-width="3" stroke-linecap="round"/><rect x="1162.4" y="214.0" width="5.0" height="60.0" fill="hsl(121, 55%, 38%)"/><line x1="1180.4" y1="224.0" x2="1520.0" y2="224.0" stroke="#33312f" stroke-width="3" stroke-linecap="round"/><line x1="1180.4" y1="240.0" x2="1480.0" y2="240.0" stroke="#33312f" stroke-width="3" stroke-linecap="round"/><line x1="1180.4" y1="256.0" x2="1500.0" y2="256.0" stroke="#33312f" stroke-width="3" stroke-linecap="round"/><line x1="1162.4" y1="300.0" x2="1448.5" y2="300.0" stroke="hsl(121, 30%, 80%)" stroke-width="3" stroke-linecap="round"/><line x1="1162.4" y1="326.0" x2="1412.7" y2="326.0" stroke="hsl(121, 30%, 80%)" stroke-width="3" stroke-linecap="round"/><line x1="1162.4" y1="352.0" x2="1377.0" y2="352.0" stroke="hsl(121, 30%, 80%)" stroke-width="3" stroke-linecap="round"/><text x="1162.4" y="554.0" font-family="Helvetica, Arial, sans-serif" font-size="16" font-weight="600" fill="hsl(121, 55%, 38%)" text-anchor="start">Topic feed</text></g><g transform="translate(907.6,570.0) rotate(0) scale(0.85)"><path d="M -30,-30 L 0,-24 L 0,30 L -30,24 Z" fill="#ffffff" stroke="hsl(121, 55%, 38%)" stroke-width="3" stroke-linecap="round" stroke-linejoin="round"/><path d="M 30,-30 L 0,-24 L 0,30 L 30,24 Z" fill="hsl(121, 30%, 80%)" stroke="hsl(121, 55%, 38%)" stroke-width="3" stroke-linecap="round" stroke-linejoin="round"/><line x1="-20.0" y1="-14.0" x2="-6.0" y2="-11.0" stroke="hsl(121, 55%, 38%)" stroke-width="2" stroke-linecap="round"/><line x1="-20.0" y1="-2.0" x2="-6.0" y2="-0.5" stroke="hsl(121, 55%, 38%)" stroke-width="2" stroke-linecap="round"/></g><g transform="translate(1297.0,513.0) rotate(-18) scale(0.85)"><circle cx="-4.0" cy="-4.0" r="22.0" fill="none" stroke="hsl(121, 55%, 38%)" stroke-width="5"/><line x1="14.0" y1="14.0" x2="32.0" y2="32.0" stroke="hsl(121, 55%, 38%)" stroke-width="6" stroke-linecap="round"/></g></svg>