<svg xmlns="http://www.w3.org/2000/svg" viewBox="0 0 1600 1000" width="1600" height="1000"><rect x="0.0" y="0.0" width="1600.0" height="1000.0" fill="hsl(1 28% 93%)"/><circle cx="430.0" cy="550.0" r="170.0" fill="hsl(1 30% 80%)"/><circle cx="430.0" cy="550.0" r="105.4" fill="hsl(1 28% 93%)"/><line x1="410.0" y1="940.0" x2="780.0" y2="940.0" stroke="hsl(1 30% 80%)" stroke-width="3" stroke-linecap="round"/><path d="M 534.8 870 L 554.6 889.8 L 588.8 848.4" fill="none" stroke="hsl(1 55% 38%)" stroke-width="7" stroke-linecap="round" stroke-linejoin="round"/><rect x="455.2" y="767.2" width="49.6" height="65.6" rx="4" fill="#33312f"/><line x1="464.1" y1="788.2" x2="495.9" y2="788.2" stroke="#ffffff" stroke-width="3" stroke-linecap="round"/><line x1="464.1" y1="800.0" x2="495.9" y2="800.0" stroke="#ffffff" stroke-width="3" stroke-linecap="round"/><line x1="464.1" y1="811.8" x2="495.9" y2="811.8" stroke="#ffffff" stroke-width="3" stroke-linecap="round"/><rect x="680.0" y="150.0" width="780.0" height="660.0" rx="16" fill="#ffffff"/><rect x="680.0" y="150.0" width="780.0" height="34.0" rx="16" fill="hsl(1 30% 80%)"/><rect x="680.0" y="167.0" width="780.0" height="17.0" fill="hsl(1 30% 80%)"/><circle cx="698.0" cy="167.0" r="4.0" fill="#ffffff"/><circle cx="714.0" cy="167.0" r="4.0" fill="#ffffff"/><circle cx="730.0" cy="167.0" r="4.0" fill="#ffffff"/><rect x="690.0" y="194.0" width="187.2" height="602.0" rx="6" fill="hsl(1 28% 93%)"/><line x1="702.0" y1="214.0" x2="863.2" y2="214.0" stroke="hsl(1 30% 80%)" stroke-width="3" stroke-linecap="round"/><line x1="702.0" y1="328.0" x2="863.2" y2="328.0" stroke="hsl(1 30% 80%)" stroke-width="3" stroke-linecap="round"/><line x1="702.0" y1="442.0" x2="863.2" y2="442.0" stroke="hsl(1 30% 80%)" stroke-width="3" stroke-linecap="round"/><line x1="702.0" y1="556.0" x2="863.2" y2="556.0" stroke="hsl(1 30% 80%)" stroke-width="3" stroke-linecap="round"/><line x1="702.0" y1="670.0" x2="863.2" y2="670.0" stroke="hsl(1 30% 80%)" stroke-width="3" stroke-linecap="round"/><rect x="893.2" y="220.0" width="5.0" height="46.0" fill="hsl(1 55% 38%)"/><line x1="909.2" y1="230.0" x2="1368.6" y2="230.0" stroke="hsl(1 30% 80%)" stroke-width="4" stroke-linecap="round"/><line x1="909.2" y1="246.0" x2="1258.0" y2="246.0" stroke="hsl(1 30% 80%)" stroke-width="4" stroke-linecap="round"/><rect x="893.2" y="290.0" width="5.0" height="46.0" fill="hsl(1 55% 38%)"/><line x1="909.2" y1="300.0" x2="1368.6" y2="300.0" stroke="hsl(1 30% 80%)" stroke-width="4" stroke-linecap="round"/><line x1="909.2" y1="316.0" x2="1258.0" y2="316.0" stroke="hsl(1 30% 80%)" stroke-width="4" stroke-linecap="round"/><rect x="893.2" y="360.0" width="5.0" height="46.0" fill="hsl(1 55% 38%)"/><line x1="909.2" y1="370.0" x2="1368.6" y2="370.0" stroke="hsl(1 30% 80%)" stroke-width="4" stroke-linecap="round"/><line x1="909.2" y1="386.0" x2="1258.0" y2="386.0" stroke="hsl(1 30% 80%)" stroke-width="4" stroke-linecap="round"/><text x="700.0" y="140.0" font-family="Helvetica, Arial, sans-serif" font-size="20" fill="#33312f" text-anchor="start">Notes</text><text x="1476.0" y="140.0" font-family="Helvetica, Arial, sans-serif" font-size="20" fill="#33312f" text-anchor="end">Sign-off</text></svg>