<svg xmlns="http://www.w3.org/2000/svg" viewBox="0 0 1600 1000" width="1600" height="1000"><rect x="0.0" y="0.0" width="1600.0" height="1000.0" fill="hsl(327 28% 93%)"/><circle cx="430.0" cy="540.0" r="180.0" fill="hsl(327 30% 80%)"/><circle cx="430.0" cy="540.0" r="111.6" fill="hsl(327 28% 93%)"/><line x1="410.0" y1="920.0" x2="770.0" y2="920.0" stroke="hsl(327 30% 80%)" stroke-width="3" stroke-linecap="round"/><rect x="517.8" y="840.2" width="74.4" height="59.6" fill="hsl(327 55% 38%)"/><ellipse cx="555.0" cy="840.2" rx="37.2" ry="13.4" fill="hsl(327 55% 38%)"/><ellipse cx="555.0" cy="899.8" rx="37.2" ry="13.4" fill="#ffffff"/><ellipse cx="555.0" cy="899.8" rx="37.2" ry="13.4" fill="none" stroke="hsl(327 55% 38%)" stroke-width="3"/><polygon points="438.5,762.1 501.5,762.1 477.6,790.0 477.6,817.9" fill="#33312f"/><rect x="640.0" y="120.0" width="840.0" height="700.0" rx="16" fill="#ffffff"/><rect x="640.0" y="120.0" width="840.0" height="34.0" rx="16" fill="hsl(327 30% 80%)"/><rect x="640.0" y="137.0" width="840.0" height="17.0" fill="hsl(327 30% 80%)"/><circle cx="658.0" cy="137.0" r="4.0" fill="#ffffff"/><circle cx="674.0" cy="137.0" r="4.0" fill="#ffffff"/><circle cx="690.0" cy="137.0" r="4.0" fill="#ffffff"/><rect x="656.0" y="164.0" width="56.0" height="20.0" rx="10" fill="hsl(327 55% 38%)"/><rect x="730.0" y="164.0" width="64.0" height="20.0" rx="10" fill="hsl(327 30% 80%)"/><rect x="776.0" y="164.0" width="50.0" height="20.0" rx="10" fill="hsl(327 30% 80%)"/><rect x="656.0" y="200.0" width="808.0" height="108.0" rx="4" fill="hsl(327 28% 93%)"/><line x1="670.0" y1="254.0" x2="1060.0" y2="254.0" stroke="hsl(327 30% 80%)" stroke-width="3" stroke-linecap="round"/><circle cx="1440.0" cy="254.0" r="6.0" fill="hsl(327 30% 80%)"/><rect x="656.0" y="316.0" width="808.0" height="108.0" rx="4" fill="hsl(327 28% 93%)"/><line x1="670.0" y1="370.0" x2="1060.0" y2="370.0" stroke="hsl(327 30% 80%)" stroke-width="3" stroke-linecap="round"/><circle cx="1440.0" cy="370.0" r="6.0" fill="hsl(327 30% 80%)"/><rect x="656.0" y="432.0" width="808.0" height="108.0" rx="4" fill="hsl(327 28% 93%)"/><line x1="670.0" y1="486.0" x2="1060.0" y2="486.0" stroke="hsl(327 30% 80%)" stroke-width="3" stroke-linecap="round"/><circle cx="1440.0" cy="486.0" r="6.0" fill="hsl(327 55% 38%)"/><rect x="656.0" y="548.0" width="808.0" height="108.0" rx="4" fill="hsl(327 28% 93%)"/><line x1="670.0" y1="602.0" x2="1060.0" y2="602.0" stroke="hsl(327 30% 80%)" stroke-width="3" stroke-linecap="round"/><circle cx="1440.0" cy="602.0" r="6.0" fill="hsl(327 30% 80%)"/><rect x="656.0" y="664.0" width="808.0" height="108.0" rx="4" fill="hsl(327 28% 93%)"/><line x1="670.0" y1="718.0" x2="1060.0" y2="718.0" stroke="hsl(327 30% 80%)" stroke-width="3" stroke-linecap="round"/><circle cx="1440.0" cy="718.0" r="6.0" fill="hsl(327 30% 80%)"/><text x="664.0" y="110.0" font-family="Helvetica, Arial, sans-serif" font-size="20" fill="#33312f" text-anchor="start">Queue</text><text x="1440.0" y="110.0" font-family="Helvetica, Arial, sans-serif" font-size="20" fill="#33312f" text-anchor="end">Review</text></svg>