<svg xmlns="http://www.w3.org/2000/svg" viewBox="0 0 1600 1000" width="1600" height="1000"><rect x="0.0" y="0.0" width="1600.0" height="1000.0" rx="0" fill="hsl(87 28% 93%)"/><circle cx="1260.0" cy="360.0" r="300.0" fill="hsl(87 30% 80%)" fill-opacity="0.5"/><circle cx="1441.0" cy="780.0" r="190.0" fill="hsl(87 30% 80%)" fill-opacity="0.32"/><circle cx="799.0" cy="900.0" r="130.0" fill="hsl(267 28% 55%)" fill-opacity="0.18"/><rect x="56.0" y="56.0" width="1488.0" height="888.0" rx="2" fill="none" stroke="hsl(87 30% 80%)" stroke-width="1.5" stroke-opacity="0.55"/><circle cx="804.0" cy="114.0" r="2.6" fill="hsl(87 55% 38%)" fill-opacity="0.16"/><circle cx="1267.0" cy="117.0" r="2.6" fill="hsl(87 55% 38%)" fill-opacity="0.16"/><circle cx="810.0" cy="204.0" r="2.6" fill="hsl(267 28% 55%)" fill-opacity="0.16"/><circle cx="1273.0" cy="207.0" r="2.6" fill="hsl(87 55% 38%)" fill-opacity="0.16"/><circle cx="816.0" cy="316.0" r="2.6" fill="hsl(87 55% 38%)" fill-opacity="0.16"/><circle cx="1253.0" cy="319.0" r="2.6" fill="hsl(267 28% 55%)" fill-opacity="0.16"/><circle cx="796.0" cy="428.0" r="2.6" fill="hsl(87 55% 38%)" fill-opacity="0.16"/><circle cx="1259.0" cy="431.0" r="2.6" fill="hsl(87 55% 38%)" fill-opacity="0.16"/><circle cx="802.0" cy="540.0" r="2.6" fill="hsl(267 28% 55%)" fill-opacity="0.16"/><circle cx="1265.0" cy="521.0" r="2.6" fill="hsl(87 55% 38%)" fill-opacity="0.16"/><circle cx="808.0" cy="630.0" r="2.6" fill="hsl(87 55% 38%)" fill-opacity="0.16"/><circle cx="1271.0" cy="633.0" r="2.6" fill="hsl(267 28% 55%)" fill-opacity="0.16"/><circle cx="814.0" cy="742.0" r="2.6" fill="hsl(87 55% 38%)" fill-opacity="0.16"/><circle cx="1277.0" cy="745.0" r="2.6" fill="hsl(87 55% 38%)" fill-opacity="0.16"/><circle cx="794.0" cy="854.0" r="2.6" fill="hsl(267 28% 55%)" fill-opacity="0.16"/><circle cx="1257.0" cy="857.0" r="2.6" fill="hsl(87 55% 38%)" fill-opacity="0.16"/><line x1="640.0" y1="90.0" x2="640.0" y2="910.0" stroke="hsl(87 30% 80%)" stroke-width="1" stroke-linecap="round" stroke-opacity="0.7"/><g transform="translate(1440.0,628.0) scale(1.70)"><path d="M -26,-24 L -10,-24 L -10,20 L -18,14 L -26,20 Z" fill="hsl(87 30% 80%)"/><line x1="-22.0" y1="-14.0" x2="-14.0" y2="-14.0" stroke="#33312f" stroke-width="1" stroke-linecap="round"/><line x1="-22.0" y1="-6.0" x2="-14.0" y2="-6.0" stroke="#33312f" stroke-width="1" stroke-linecap="round"/><rect x="2.0" y="-6.0" width="30.0" height="20.0" rx="3" fill="hsl(87 55% 38%)"/><line x1="2.0" y1="4.0" x2="32.0" y2="4.0" stroke="#ffffff" stroke-width="1" stroke-linecap="round"/></g><circle cx="1440.0" cy="659.8" r="25.5" fill="hsl(87 30% 80%)" fill-opacity="0.25"/><g transform="translate(490.0,320.8) scale(1.50)"><polygon points="22.0,0.0 27.7,4.4 20.9,6.8" fill="hsl(87 55% 38%)"/><polygon points="20.9,6.8 24.9,12.7 17.8,12.9" fill="hsl(87 55% 38%)"/><polygon points="17.8,12.9 19.8,19.8 12.9,17.8" fill="hsl(87 55% 38%)"/><polygon points="12.9,17.8 12.7,24.9 6.8,20.9" fill="hsl(87 55% 38%)"/><polygon points="6.8,20.9 4.4,27.7 0.0,22.0" fill="hsl(87 55% 38%)"/><polygon points="0.0,22.0 -4.4,27.7 -6.8,20.9" fill="hsl(87 55% 38%)"/><polygon points="-6.8,20.9 -12.7,24.9 -12.9,17.8" fill="hsl(87 55% 38%)"/><polygon points="-12.9,17.8 -19.8,19.8 -17.8,12.9" fill="hsl(87 55% 38%)"/><polygon points="-17.8,12.9 -24.9,12.7 -20.9,6.8" fill="hsl(87 55% 38%)"/><polygon points="-20.9,6.8 -27.7,4.4 -22.0,0.0" fill="hsl(87 55% 38%)"/><polygon points="-22.0,0.0 -27.7,-4.4 -20.9,-6.8" fill="hsl(87 55% 38%)"/><polygon points="-20.9,-6.8 -24.9,-12.7 -17.8,-12.9" fill="hsl(87 55% 38%)"/><polygon points="-17.8,-12.9 -19.8,-19.8 -12.9,-17.8" fill="hsl(87 55% 38%)"/><polygon points="-12.9,-17.8 -12.7,-24.9 -6.8,-20.9" fill="hsl(87 55% 38%)"/><polygon points="-6.8,-20.9 -4.4,-27.7 -0.0,-22.0" fill="hsl(87 55% 38%)"/><polygon points="-0.0,-22.0 4.4,-27.7 6.8,-20.9" fill="hsl(87 55% 38%)"/><polygon points="6.8,-20.9 12.7,-24.9 12.9,-17.8" fill="hsl(87 55% 38%)"/><polygon points="12.9,-17.8 19.8,-19.8 17.8,-12.9" fill="hsl(87 55% 38%)"/><polygon points="17.8,-12.9 24.9,-12.7 20.9,-6.8" fill="hsl(87 55% 38%)"/><polygon points="20.9,-6.8 27.7,-4.4 22.0,-0.0" fill="hsl(87 55% 38%)"/><circle cx="0.0" cy="0.0" r="16.0" fill="hsl(87 30% 80%)"/></g><circle cx="490.0" cy="348.9" r="22.5" fill="hsl(87 30% 80%)" fill-opacity="0.25"/><rect x="559.0" y="179.0" width="822.0" height="642.0" rx="15" fill="none" stroke="hsl(87 55% 38%)" stroke-width="1.5" stroke-opacity="0.4"/><rect x="560.0" y="180.0" width="820.0" height="640.0" rx="14" fill="#ffffff"/><rect x="560.0" y="180.0" width="820.0" height="64.0" rx="0" fill="hsl(87 55% 38%)"/><circle cx="586.0" cy="212.0" r="6.0" fill="#ffffff"/><rect x="606.0" y="207.0" width="229.6" height="10.0" rx="3" fill="#ffffff"/><rect x="570.0" y="262.0" width="395.0" height="540.0" rx="4" fill="#ffffff"/><rect x="582.0" y="278.0" width="371.0" height="8.0" rx="2" fill="hsl(87 30% 80%)"/><rect x="582.0" y="386.0" width="371.0" height="8.0" rx="2" fill="hsl(87 30% 80%)"/><rect x="582.0" y="494.0" width="371.0" height="8.0" rx="2" fill="hsl(87 30% 80%)"/><rect x="582.0" y="602.0" width="371.0" height="8.0" rx="2" fill="hsl(87 30% 80%)"/><rect x="975.0" y="262.0" width="395.0" height="334.8" rx="4" fill="hsl(87 28% 93%)"/><rect x="989.0" y="278.0" width="367.0" height="8.0" rx="2" fill="hsl(267 28% 55%)"/><rect x="989.0" y="296.0" width="349.0" height="8.0" rx="2" fill="hsl(87 30% 80%)"/><rect x="570.0" y="672.4" width="260.0" height="108.0" rx="5" fill="hsl(87 55% 38%)"/><rect x="840.0" y="672.4" width="260.0" height="108.0" rx="5" fill="hsl(87 28% 93%)"/><rect x="1110.0" y="672.4" width="260.0" height="108.0" rx="5" fill="hsl(87 30% 80%)"/><text x="574.0" y="256.0" font-family="Helvetica, Arial, sans-serif" font-size="20" fill="#33312f" text-anchor="start" font-weight="600">Claims</text><line x1="570.0" y1="846.0" x2="692.7" y2="846.0" stroke="hsl(87 30% 80%)" stroke-width="3" stroke-linecap="round" stroke-opacity="0.55"/><line x1="706.7" y1="846.0" x2="829.3" y2="846.0" stroke="hsl(87 30% 80%)" stroke-width="3" stroke-linecap="round" stroke-opacity="0.55"/><line x1="843.3" y1="846.0" x2="966.0" y2="846.0" stroke="hsl(87 30% 80%)" stroke-width="3" stroke-linecap="round" stroke-opacity="0.55"/><line x1="980.0" y1="846.0" x2="1102.7" y2="846.0" stroke="hsl(87 30% 80%)" stroke-width="3" stroke-linecap="round" stroke-opacity="0.55"/><line x1="1116.7" y1="846.0" x2="1239.3" y2="846.0" stroke="hsl(87 30% 80%)" stroke-width="3" stroke-linecap="round" stroke-opacity="0.55"/><line x1="1253.3" y1="846.0" x2="1376.0" y2="846.0" stroke="hsl(87 30% 80%)" stroke-width="3" stroke-linecap="round" stroke-opacity="0.55"/><rect x="1288.0" y="146.0" width="82.0" height="26.0" rx="13" fill="hsl(87 55% 38%)"/><text x="1329.0" y="164.0" font-family="Helvetica, Arial, sans-serif" font-size="16" fill="#ffffff" text-anchor="middle" font-weight="600">Policy</text></svg>