<svg xmlns="http://www.w3.org/2000/svg" viewBox="0 0 1600 1000" width="1600" height="1000"><rect x="0.0" y="0.0" width="1600.0" height="1000.0" rx="0" fill="hsl(87 28% 93%)"/><circle cx="1180.0" cy="360.0" r="300.0" fill="hsl(87 30% 80%)" fill-opacity="0.5"/><circle cx="1458.0" cy="780.0" r="190.0" fill="hsl(87 30% 80%)" fill-opacity="0.32"/><circle cx="772.0" cy="900.0" r="130.0" fill="hsl(267 28% 55%)" fill-opacity="0.18"/><rect x="56.0" y="56.0" width="1488.0" height="888.0" rx="2" fill="none" stroke="hsl(87 30% 80%)" stroke-width="1.5" stroke-opacity="0.55"/><circle cx="995.0" cy="101.0" r="2.6" fill="hsl(267 28% 55%)" fill-opacity="0.16"/><circle cx="1458.0" cy="104.0" r="2.6" fill="hsl(87 55% 38%)" fill-opacity="0.16"/><circle cx="1001.0" cy="213.0" r="2.6" fill="hsl(87 55% 38%)" fill-opacity="0.16"/><circle cx="1438.0" cy="216.0" r="2.6" fill="hsl(267 28% 55%)" fill-opacity="0.16"/><circle cx="981.0" cy="325.0" r="2.6" fill="hsl(87 55% 38%)" fill-opacity="0.16"/><circle cx="1444.0" cy="328.0" r="2.6" fill="hsl(87 55% 38%)" fill-opacity="0.16"/><circle cx="987.0" cy="415.0" r="2.6" fill="hsl(267 28% 55%)" fill-opacity="0.16"/><circle cx="1450.0" cy="418.0" r="2.6" fill="hsl(87 55% 38%)" fill-opacity="0.16"/><circle cx="993.0" cy="527.0" r="2.6" fill="hsl(87 55% 38%)" fill-opacity="0.16"/><circle cx="1456.0" cy="530.0" r="2.6" fill="hsl(267 28% 55%)" fill-opacity="0.16"/><circle cx="999.0" cy="639.0" r="2.6" fill="hsl(87 55% 38%)" fill-opacity="0.16"/><circle cx="1436.0" cy="642.0" r="2.6" fill="hsl(87 55% 38%)" fill-opacity="0.16"/><circle cx="979.0" cy="751.0" r="2.6" fill="hsl(267 28% 55%)" fill-opacity="0.16"/><circle cx="1442.0" cy="732.0" r="2.6" fill="hsl(87 55% 38%)" fill-opacity="0.16"/><circle cx="985.0" cy="841.0" r="2.6" fill="hsl(87 55% 38%)" fill-opacity="0.16"/><circle cx="1448.0" cy="844.0" r="2.6" fill="hsl(267 28% 55%)" fill-opacity="0.16"/><line x1="640.0" y1="90.0" x2="640.0" y2="910.0" stroke="hsl(87 30% 80%)" stroke-width="1" stroke-linecap="round" stroke-opacity="0.7"/><g transform="translate(1440.0,606.0) scale(1.70)"><polygon points="-24.0,-6.0 0.0,-18.0 24.0,-6.0 0.0,6.0" fill="#33312f"/><line x1="16.0" y1="-2.0" x2="16.0" y2="10.0" stroke="#33312f" stroke-width="2" stroke-linecap="round"/><circle cx="16.0" cy="12.0" r="3.0" fill="hsl(87 55% 38%)"/><rect x="-14.0" y="8.0" width="28.0" height="20.0" rx="2" fill="hsl(87 30% 80%)"/><line x1="-8.0" y1="16.0" x2="10.0" y2="16.0" stroke="#ffffff" stroke-width="2" stroke-linecap="round"/></g><circle cx="1440.0" cy="637.8" r="25.5" fill="hsl(87 30% 80%)" fill-opacity="0.25"/><g transform="translate(550.0,279.6) scale(1.50)"><rect x="-28.0" y="-20.0" width="30.0" height="40.0" rx="0" fill="#ffffff"/><line x1="-24.0" y1="-10.0" x2="-2.0" y2="-10.0" stroke="hsl(87 30% 80%)" stroke-width="2" stroke-linecap="round"/><line x1="-24.0" y1="0.0" x2="-2.0" y2="0.0" stroke="hsl(87 30% 80%)" stroke-width="2" stroke-linecap="round"/><line x1="-24.0" y1="10.0" x2="-2.0" y2="10.0" stroke="hsl(87 30% 80%)" stroke-width="2" stroke-linecap="round"/><rect x="6.0" y="-20.0" width="22.0" height="40.0" rx="3" fill="#33312f"/><circle cx="10.0" cy="-10.0" r="2.0" fill="#ffffff"/><circle cx="16.0" cy="-10.0" r="2.0" fill="#ffffff"/><circle cx="22.0" cy="-10.0" r="2.0" fill="#ffffff"/><circle cx="10.0" cy="-2.0" r="2.0" fill="#ffffff"/><circle cx="16.0" cy="-2.0" r="2.0" fill="#ffffff"/><circle cx="22.0" cy="-2.0" r="2.0" fill="#ffffff"/></g><circle cx="550.0" cy="307.7" r="22.5" fill="hsl(87 30% 80%)" fill-opacity="0.25"/><rect x="619.0" y="129.0" width="762.0" height="682.0" rx="15" fill="none" stroke="hsl(87 55% 38%)" stroke-width="1.5" stroke-opacity="0.4"/><rect x="620.0" y="130.0" width="760.0" height="680.0" rx="14" fill="#ffffff"/><rect x="620.0" y="130.0" width="760.0" height="64.0" rx="0" fill="hsl(87 55% 38%)"/><circle cx="646.0" cy="162.0" r="6.0" fill="#ffffff"/><rect x="666.0" y="157.0" width="212.8" height="10.0" rx="3" fill="#ffffff"/><rect x="630.0" y="212.0" width="365.0" height="267.0" rx="5" fill="hsl(87 30% 80%)"/><rect x="642.0" y="224.0" width="182.5" height="7.0" rx="2" fill="#ffffff"/><rect x="1005.0" y="212.0" width="365.0" height="267.0" rx="5" fill="hsl(267 28% 55%)"/><rect x="1017.0" y="224.0" width="182.5" height="7.0" rx="2" fill="#ffffff"/><rect x="630.0" y="489.0" width="365.0" height="267.0" rx="5" fill="hsl(87 30% 80%)"/><rect x="642.0" y="501.0" width="182.5" height="7.0" rx="2" fill="#ffffff"/><rect x="1005.0" y="489.0" width="365.0" height="267.0" rx="5" fill="hsl(87 30% 80%)"/><rect x="1017.0" y="501.0" width="182.5" height="7.0" rx="2" fill="#ffffff"/><rect x="630.0" y="768.0" width="740.0" height="12.0" rx="4" fill="hsl(87 28% 93%)"/><rect x="630.0" y="768.0" width="444.0" height="12.0" rx="4" fill="hsl(87 55% 38%)"/><text x="634.0" y="206.0" font-family="Helvetica, Arial, sans-serif" font-size="20" fill="#33312f" text-anchor="start" font-weight="600">Case library</text><line x1="630.0" y1="836.0" x2="742.7" y2="836.0" stroke="hsl(87 30% 80%)" stroke-width="3" stroke-linecap="round" stroke-opacity="0.55"/><line x1="756.7" y1="836.0" x2="869.3" y2="836.0" stroke="hsl(87 30% 80%)" stroke-width="3" stroke-linecap="round" stroke-opacity="0.55"/><line x1="883.3" y1="836.0" x2="996.0" y2="836.0" stroke="hsl(87 30% 80%)" stroke-width="3" stroke-linecap="round" stroke-opacity="0.55"/><line x1="1010.0" y1="836.0" x2="1122.7" y2="836.0" stroke="hsl(87 30% 80%)" stroke-width="3" stroke-linecap="round" stroke-opacity="0.55"/><line x1="1136.7" y1="836.0" x2="1249.3" y2="836.0" stroke="hsl(87 30% 80%)" stroke-width="3" stroke-linecap="round" stroke-opacity="0.55"/><line x1="1263.3" y1="836.0" x2="1376.0" y2="836.0" stroke="hsl(87 30% 80%)" stroke-width="3" stroke-linecap="round" stroke-opacity="0.55"/><rect x="1266.0" y="96.0" width="104.0" height="26.0" rx="13" fill="hsl(87 55% 38%)"/><text x="1318.0" y="114.0" font-family="Helvetica, Arial, sans-serif" font-size="16" fill="#ffffff" text-anchor="middle" font-weight="600">Coaching</text></svg>